<?xml version="1.0" encoding="UTF-8"?>
<svg version="1.1" xmlns="http://www.w3.org/2000/svg" width="102" height="98">
<path d="M0 0 C33.66 0 67.32 0 102 0 C102 32.34 102 64.68 102 98 C68.34 98 34.68 98 0 98 C0 65.66 0 33.32 0 0 Z " fill="#E8EAEC" transform="translate(0,0)"/>
<path d="M0 0 C0 0.66 0 1.32 0 2 C0.63808594 2.10957031 1.27617188 2.21914062 1.93359375 2.33203125 C3.17302734 2.56986328 3.17302734 2.56986328 4.4375 2.8125 C5.26121094 2.96332031 6.08492188 3.11414063 6.93359375 3.26953125 C7.95646484 3.63111328 7.95646484 3.63111328 9 4 C9.495 5.485 9.495 5.485 10 7 C10.73605469 7.09796875 11.47210938 7.1959375 12.23046875 7.296875 C21.92267135 8.78207381 21.92267135 8.78207381 26 13 C25.67 13.99 25.34 14.98 25 16 C24.34 15.67 23.68 15.34 23 15 C21.2104531 14.90342128 19.41714466 14.87019532 17.625 14.875 C16.66851562 14.87242188 15.71203125 14.86984375 14.7265625 14.8671875 C12.31859146 14.98448122 10.30009932 15.31324049 8 16 C8 16.66 8 17.32 8 18 C6.5390625 19.18359375 6.5390625 19.18359375 4.625 20.4375 C1.91409131 22.21688245 0.87203979 23.19194031 -1 26 C-1.66 26 -2.32 26 -3 26 C-3.433125 27.2065625 -3.433125 27.2065625 -3.875 28.4375 C-5 31 -5 31 -7 32 C-7.33 32.99 -7.66 33.98 -8 35 C-11 35 -11 35 -12.4296875 33.64453125 C-13.14511719 32.73767578 -13.14511719 32.73767578 -13.875 31.8125 C-15.6892434 29.58267868 -17.46081868 27.53918132 -19.5 25.5 C-22.03183774 22.96816226 -24.30139655 20.31640583 -26.5703125 17.55078125 C-28.11481807 15.75318225 -28.11481807 15.75318225 -31 14 C-31 13.34 -31 12.68 -31 12 C-31.66 12 -32.32 12 -33 12 C-33 12.99 -33 13.98 -33 15 C-33.66 15.33 -34.32 15.66 -35 16 C-36.05352843 18.30965848 -37.05719096 20.6429774 -38 23 C-38.66 23 -39.32 23 -40 23 C-40.2165625 24.1446875 -40.2165625 24.1446875 -40.4375 25.3125 C-41 28 -41 28 -42 31 C-42.66 31 -43.32 31 -44 31 C-44.2475 31.78375 -44.495 32.5675 -44.75 33.375 C-46.33931493 37.98401329 -48.16207173 42.48547716 -50 47 C-50.66 47 -51.32 47 -52 47 C-52.12375 48.11375 -52.2475 49.2275 -52.375 50.375 C-52.98457542 55.30460991 -53.97473685 60.14244255 -55 65 C-56.32 64.67 -57.64 64.34 -59 64 C-62.53188822 51.04974318 -64.21118719 36.74111364 -59 24 C-58.34 23.67 -57.68 23.34 -57 23 C-56.731875 22.0925 -56.46375 21.185 -56.1875 20.25 C-54.36526811 15.26283903 -50.74628006 12.59790332 -46.75 9.3125 C-43.98257806 7.2957678 -43.98257806 7.2957678 -43 5 C-29.93308857 -3.54691062 -14.69024967 -3.12796191 0 0 Z " fill="#0574BD" transform="translate(67,5)"/>
<path d="M0 0 C2 3 2 3 2 7 C2.66 7 3.32 7 4 7 C6.32520947 16.76587978 5.54172224 27.35507185 3 37 C2.34 37 1.68 37 1 37 C0.7834375 38.423125 0.7834375 38.423125 0.5625 39.875 C0 43 0 43 -1 45 C-1.66 45 -2.32 45 -3 45 C-3.0928125 45.804375 -3.0928125 45.804375 -3.1875 46.625 C-5.24058372 52.62632165 -10.61419837 56.95745147 -16 60 C-18.9375 60.8125 -18.9375 60.8125 -21 61 C-21 61.66 -21 62.32 -21 63 C-35.63042156 67.57711513 -49.79079393 67.55892795 -63.6640625 61.01171875 C-66.93817327 59.59366743 -70.30134464 58.65180581 -73.73828125 57.7109375 C-77.7929569 56.43641078 -79.58806833 55.61789751 -82 52 C-81.67 51.01 -81.34 50.02 -81 49 C-80.34 49.33 -79.68 49.66 -79 50 C-79 50.66 -79 51.32 -79 52 C-70.55495672 52.93833814 -65.66462754 49.42256695 -59.01953125 44.546875 C-55.07472638 41.37709802 -52.19479694 37.81816964 -49.359375 33.63671875 C-48 32 -48 32 -45 31 C-41.73692207 34.13255481 -38.77362284 37.48525763 -35.81640625 40.90234375 C-34.62536842 42.27780034 -33.425109 43.64533716 -32.21484375 45.00390625 C-31.66957031 45.62136719 -31.12429687 46.23882812 -30.5625 46.875 C-30.06878906 47.42929688 -29.57507812 47.98359375 -29.06640625 48.5546875 C-28 50 -28 50 -28 52 C-26.68 52 -25.36 52 -24 52 C-23.7525 51.484375 -23.505 50.96875 -23.25 50.4375 C-21.60418384 47.22815849 -19.8023904 44.12414336 -18 41 C-17.34 41 -16.68 41 -16 41 C-15.7834375 39.824375 -15.7834375 39.824375 -15.5625 38.625 C-15 36 -15 36 -14 34 C-13.34 34 -12.68 34 -12 34 C-11.67 32.35 -11.34 30.7 -11 29 C-10.34 29 -9.68 29 -9 29 C-8.34 26.36 -7.68 23.72 -7 21 C-6.34 21 -5.68 21 -5 21 C-4.855625 19.783125 -4.71125 18.56625 -4.5625 17.3125 C-4.17219047 14.17329623 -3.67648144 11.0924866 -3 8 C-2.34 8 -1.68 8 -1 8 C-0.67 5.36 -0.34 2.72 0 0 Z " fill="#172E88" transform="translate(92,29)"/>
<path d="M0 0 C2 3 2 3 2 7 C2.66 7 3.32 7 4 7 C6.32520947 16.76587978 5.54172224 27.35507185 3 37 C2.34 37 1.68 37 1 37 C0.7834375 38.423125 0.7834375 38.423125 0.5625 39.875 C0 43 0 43 -1 45 C-1.66 45 -2.32 45 -3 45 C-3.103125 45.598125 -3.20625 46.19625 -3.3125 46.8125 C-4.12378323 49.39385573 -4.88112703 50.33517123 -7 52 C-9.26171875 52.29296875 -9.26171875 52.29296875 -11.6875 52.1875 C-12.89986328 52.14689453 -12.89986328 52.14689453 -14.13671875 52.10546875 C-14.75160156 52.07066406 -15.36648437 52.03585938 -16 52 C-16.33 51.34 -16.66 50.68 -17 50 C-17.99 50.495 -17.99 50.495 -19 51 C-18.49396008 48.83125748 -18.00016187 47.00032373 -17 45 C-17.66 45 -18.32 45 -19 45 C-18.67 43.68 -18.34 42.36 -18 41 C-17.34 41 -16.68 41 -16 41 C-15.7834375 39.824375 -15.7834375 39.824375 -15.5625 38.625 C-15 36 -15 36 -14 34 C-13.34 34 -12.68 34 -12 34 C-11.67 32.35 -11.34 30.7 -11 29 C-10.34 29 -9.68 29 -9 29 C-8.34 26.36 -7.68 23.72 -7 21 C-6.34 21 -5.68 21 -5 21 C-4.855625 19.783125 -4.71125 18.56625 -4.5625 17.3125 C-4.17219047 14.17329623 -3.67648144 11.0924866 -3 8 C-2.34 8 -1.68 8 -1 8 C-0.67 5.36 -0.34 2.72 0 0 Z " fill="#0360AC" transform="translate(92,29)"/>
<path d="M0 0 C2.91208134 1.41191823 4.15470895 3.39846675 6.0625 6 C6.9997681 7.02104625 7.9372706 8.04187739 8.875 9.0625 C11.0625 12 11.0625 12 11.0625 14.3125 C10.0625 16 10.0625 16 7.0625 17 C5.85367904 19.00016466 5.85367904 19.00016466 5.0625 21 C4.4025 21 3.7425 21 3.0625 21 C3.0625 21.99 3.0625 22.98 3.0625 24 C2.134375 24.12375 2.134375 24.12375 1.1875 24.25 C-1.12187567 24.81258459 -1.12187567 24.81258459 -2.1875 27.0625 C-2.55875 28.0215625 -2.55875 28.0215625 -2.9375 29 C-3.9275 29 -4.9175 29 -5.9375 29 C-6.2675 29.99 -6.5975 30.98 -6.9375 32 C-8.93704746 32.04254356 -10.93791636 32.04080783 -12.9375 32 C-13.9375 31 -13.9375 31 -14.0703125 28.85546875 C-14.06773438 27.97503906 -14.06515625 27.09460938 -14.0625 26.1875 C-14.06507812 25.31480469 -14.06765625 24.44210938 -14.0703125 23.54296875 C-13.94864834 21.21345785 -13.59264709 19.23061985 -12.9375 17 C-12.2775 17 -11.6175 17 -10.9375 17 C-10.2775 14.36 -9.6175 11.72 -8.9375 9 C-8.2775 9 -7.6175 9 -6.9375 9 C-6.5353125 7.6078125 -6.5353125 7.6078125 -6.125 6.1875 C-3.81985294 0 -3.81985294 0 0 0 Z " fill="#13358A" transform="translate(32.9375,45)"/>
<path d="M0 0 C0 0.99 0 1.98 0 3 C-0.66 3 -1.32 3 -2 3 C-2 3.66 -2 4.32 -2 5 C-1.01 4.67 -0.02 4.34 1 4 C1.33 5.65 1.66 7.3 2 9 C2.99 9 3.98 9 5 9 C5.33 9.99 5.66 10.98 6 12 C6.66 12.33 7.32 12.66 8 13 C8 11.35 8 9.7 8 8 C7.34 8 6.68 8 6 8 C6 7.34 6 6.68 6 6 C7.65 6.33 9.3 6.66 11 7 C10.37774894 10.88906912 9.18371919 14.07156939 7.5 17.625 C6.18456891 20.41646714 4.97649314 23.07052057 4 26 C3.34 26 2.68 26 2 26 C1.87625 27.11375 1.7525 28.2275 1.625 29.375 C1.01542458 34.30460991 0.02526315 39.14244255 -1 44 C-2.32 43.67 -3.64 43.34 -5 43 C-8.51760109 30.10212932 -10.28044759 15.66872817 -5 3 C-2.54427646 0 -2.54427646 0 0 0 Z " fill="#183389" transform="translate(13,26)"/>
<path d="M0 0 C0.64632862 10.34125789 -2.85569167 17.2160427 -8 26 C-8.66 26 -9.32 26 -10 26 C-10.33 27.32 -10.66 28.64 -11 30 C-15.00382945 29.47815257 -16.6066195 27.61746557 -19.1875 24.625 C-20.22970703 23.43777344 -20.22970703 23.43777344 -21.29296875 22.2265625 C-23 20 -23 20 -24 17 C-7.26386536 -2.25430304 -7.26386536 -2.25430304 0 0 Z " fill="#0376C3" transform="translate(83,24)"/>
<path d="M0 0 C-0.33 0.99 -0.66 1.98 -1 3 C-1.66 3 -2.32 3 -3 3 C-3.33 4.32 -3.66 5.64 -4 7 C-5.66666667 7 -7.33333333 7 -9 7 C-9 7.66 -9 8.32 -9 9 C-8.34 9 -7.68 9 -7 9 C-7 9.66 -7 10.32 -7 11 C-2.35842854 9.67383673 1.01680334 7.68432819 5 5 C6.32 4.67 7.64 4.34 9 4 C9.99 6.64 10.98 9.28 12 12 C13.65 11.67 15.3 11.34 17 11 C18.1875 13.25 18.1875 13.25 19 16 C17.625 18.3125 17.625 18.3125 16 20 C14.33333333 18.33333333 12.66666667 16.66666667 11 15 C10.071875 14.113125 9.14375 13.22625 8.1875 12.3125 C6 10 6 10 6 8 C5.34 8 4.68 8 4 8 C4 8.99 4 9.98 4 11 C3.01 11.495 3.01 11.495 2 12 C0.94647157 14.30965848 -0.05719096 16.6429774 -1 19 C-1.66 19 -2.32 19 -3 19 C-3.12375 19.763125 -3.2475 20.52625 -3.375 21.3125 C-4 24 -4 24 -6 27 C-6 26.01 -6 25.02 -6 24 C-7.65 23.67 -9.3 23.34 -11 23 C-11 23.66 -11 24.32 -11 25 C-10.34 25 -9.68 25 -9 25 C-8.67 25.99 -8.34 26.98 -8 28 C-8.33 28.66 -8.66 29.32 -9 30 C-9.99 29.67 -10.98 29.34 -12 29 C-12 28.01 -12 27.02 -12 26 C-12.99 26 -13.98 26 -15 26 C-15.66 24.68 -16.32 23.36 -17 22 C-17.66 22 -18.32 22 -19 22 C-19 21.34 -19 20.68 -19 20 C-18.34 20 -17.68 20 -17 20 C-17 19.01 -17 18.02 -17 17 C-17.66 16.67 -18.32 16.34 -19 16 C-17.39775875 11.19327625 -13.58616585 8.44613909 -9.75 5.3125 C-6.98257806 3.2957678 -6.98257806 3.2957678 -6 1 C-3 0 -3 0 0 0 Z " fill="#02499E" transform="translate(30,9)"/>
<path d="M0 0 C3.5549955 1.4219982 4.36668882 2.63730051 6 6 C7.64302953 7.68997323 9.31471312 9.35216394 11 11 C12.28458197 12.38319096 13.55491558 13.77971824 14.8125 15.1875 C15.41707031 15.86167969 16.02164063 16.53585938 16.64453125 17.23046875 C18 19 18 19 18 21 C19.32 21 20.64 21 22 21 C22.433125 20.1028125 22.433125 20.1028125 22.875 19.1875 C24 17 24 17 26 14 C26.99 14 27.98 14 29 14 C29 15.32 29 16.64 29 18 C31.76223278 20.76223278 34.20706617 20.57856291 38 21 C36.91588142 24.25235574 36.4367504 24.69929701 33.75 26.5625 C33.16734375 26.97628906 32.5846875 27.39007813 31.984375 27.81640625 C25.90309982 31.44362353 20.95243056 31.16752845 14 31 C13.67 27.04 13.34 23.08 13 19 C11.35 19 9.7 19 8 19 C7.01 19 6.02 19 5 19 C5.20625 18.2575 5.4125 17.515 5.625 16.75 C6.05334069 13.60883494 5.51935145 12.68120844 4 10 C4 9.01 4 8.02 4 7 C3.4225 7.33 2.845 7.66 2.25 8 C0 9 0 9 -4 9 C-3.6875 5.625 -3.6875 5.625 -3 2 C-2.01 1.34 -1.02 0.68 0 0 Z " fill="#0A4293" transform="translate(46,60)"/>
<path d="M0 0 C2 3 2 3 2 7 C2.66 7 3.32 7 4 7 C6.32520947 16.76587978 5.54172224 27.35507185 3 37 C2.34 36.67 1.68 36.34 1 36 C0.67 36.66 0.34 37.32 0 38 C-0.99 38 -1.98 38 -3 38 C-3.33 34.37 -3.66 30.74 -4 27 C-4.99 27.33 -5.98 27.66 -7 28 C-7.93423645 24.98968256 -8.04449911 24.13349732 -7 21 C-6.34 21 -5.68 21 -5 21 C-4.855625 19.783125 -4.71125 18.56625 -4.5625 17.3125 C-4.17219047 14.17329623 -3.67648144 11.0924866 -3 8 C-2.34 8 -1.68 8 -1 8 C-0.67 5.36 -0.34 2.72 0 0 Z " fill="#0676C1" transform="translate(92,29)"/>
<path d="M0 0 C0 3.2234174 -0.69715293 5.0877536 -2 8 C-2.33 8.33 -2.66 8.66 -3 9 C-2.01 9.33 -1.02 9.66 0 10 C1.1875 13.0625 1.1875 13.0625 2 16 C1.34 16 0.68 16 0 16 C0 16.66 0 17.32 0 18 C1.98 17.67 3.96 17.34 6 17 C5.01 19.475 5.01 19.475 4 22 C3.34 22 2.68 22 2 22 C1.67 23.32 1.34 24.64 1 26 C-3.00382945 25.47815257 -4.6066195 23.61746557 -7.1875 20.625 C-8.22970703 19.43777344 -8.22970703 19.43777344 -9.29296875 18.2265625 C-11 16 -11 16 -12 13 C-10.56354149 11.39490066 -9.12579294 9.79095576 -7.6875 8.1875 C-6.88699219 7.29417969 -6.08648437 6.40085937 -5.26171875 5.48046875 C-3.54775419 3.60073214 -1.82122396 1.77407253 0 0 Z " fill="#1371B3" transform="translate(71,28)"/>
<path d="M0 0 C1.1577506 3.47325181 1.06866652 6.36067448 1 10 C0.071875 10.3403125 0.071875 10.3403125 -0.875 10.6875 C-3.71423268 12.44114371 -4.12962687 13.80863187 -5 17 C-5.16757757 20.20870233 -5.16757757 20.20870233 -5 23 C-4.01 22.67 -3.02 22.34 -2 22 C0.6875 22.9375 0.6875 22.9375 3 24 C2.34 25.32 1.68 26.64 1 28 C0.01 28 -0.98 28 -2 28 C-2.33 28.99 -2.66 29.98 -3 31 C-4.99954746 31.04254356 -7.00041636 31.04080783 -9 31 C-10 30 -10 30 -10.1328125 27.85546875 C-10.13023438 26.97503906 -10.12765625 26.09460938 -10.125 25.1875 C-10.12757812 24.31480469 -10.13015625 23.44210938 -10.1328125 22.54296875 C-10.01114834 20.21345785 -9.65514709 18.23061985 -9 16 C-8.34 16 -7.68 16 -7 16 C-6.34 13.36 -5.68 10.72 -5 8 C-4.34 8 -3.68 8 -3 8 C-2.690625 7.05125 -2.38125 6.1025 -2.0625 5.125 C-1 2 -1 2 0 0 Z " fill="#293083" transform="translate(29,46)"/>
<path d="M0 0 C0.33 0.99 0.66 1.98 1 3 C2.32 2.34 3.64 1.68 5 1 C6.5029278 3.53124683 7.2006987 5.20745988 6.46484375 8.11328125 C5.7028501 10.10864138 4.89496636 12.06090622 4 14 C3.67 13.01 3.34 12.02 3 11 C1.35 10.67 -0.3 10.34 -2 10 C-2 10.66 -2 11.32 -2 12 C-1.34 12 -0.68 12 0 12 C0.33 12.99 0.66 13.98 1 15 C0.67 15.66 0.34 16.32 0 17 C-0.99 16.67 -1.98 16.34 -3 16 C-3 15.01 -3 14.02 -3 13 C-3.99 13 -4.98 13 -6 13 C-6.75 10.3125 -6.75 10.3125 -7 7 C-4.9516584 3.78117748 -3.18081891 2.12054594 0 0 Z " fill="#054C9A" transform="translate(21,22)"/>
<path d="M0 0 C2 3 2 3 2 7 C2.66 7 3.32 7 4 7 C5.05619003 11.28297531 5.11702092 15.42985646 5.0625 19.8125 C5.05798828 20.50537109 5.05347656 21.19824219 5.04882812 21.91210938 C5.03713156 23.60811068 5.01919924 25.30406703 5 27 C4.67 27 4.34 27 4 27 C3.67 24.03 3.34 21.06 3 18 C2.34 18 1.68 18 1 18 C0.34 19.32 -0.32 20.64 -1 22 C-1 21.01 -1 20.02 -1 19 C-1.66 19 -2.32 19 -3 19 C-3.84098656 14.98195309 -4.05404945 11.98196457 -3 8 C-2.34 8 -1.68 8 -1 8 C-0.67 5.36 -0.34 2.72 0 0 Z " fill="#1080C0" transform="translate(92,29)"/>
<path d="M0 0 C0.66 0.33 1.32 0.66 2 1 C2 1.66 2 2.32 2 3 C2.73605469 3.09796875 3.47210938 3.1959375 4.23046875 3.296875 C13.92267135 4.78207381 13.92267135 4.78207381 18 9 C17.67 9.99 17.34 10.98 17 12 C16.34 11.67 15.68 11.34 15 11 C9.27818607 10.68212145 3.61590124 10.78575108 -2 12 C-1.45276317 8.62537285 -0.9451 6.91765 1 4 C0.69159401 1.84725052 0.69159401 1.84725052 0 0 Z " fill="#2494CC" transform="translate(75,9)"/>
<path d="M0 0 C0.50142393 8.02278283 -1.19057628 13.96721774 -5 21 C-5.33 21 -5.66 21 -6 21 C-5.97679688 20.26394531 -5.95359375 19.52789062 -5.9296875 18.76953125 C-5.91164063 17.79371094 -5.89359375 16.81789063 -5.875 15.8125 C-5.85179688 14.84957031 -5.82859375 13.88664062 -5.8046875 12.89453125 C-6.01290694 9.80871915 -6.57267904 7.73648621 -8 5 C-8.99 4.34 -9.98 3.68 -11 3 C-7.18178484 -0.02823961 -4.81391924 -1.49397494 0 0 Z " fill="#167EBC" transform="translate(83,24)"/>
<path d="M0 0 C0.66 0.33 1.32 0.66 2 1 C2 1.66 2 2.32 2 3 C2.66 3 3.32 3 4 3 C3.03644647 13.55808656 3.03644647 13.55808656 2 18 C0.68 17.67 -0.64 17.34 -2 17 C-2.66 13.37 -3.32 9.74 -4 6 C-3.34 6 -2.68 6 -2 6 C-1.855625 5.195625 -1.71125 4.39125 -1.5625 3.5625 C-1 1 -1 1 0 0 Z " fill="#1D2480" transform="translate(10,52)"/>
<path d="M0 0 C2.15377564 2.62198774 3.40072174 4.64404172 4 8 C5.65 7.67 7.3 7.34 9 7 C10.1875 9.25 10.1875 9.25 11 12 C9.625 14.3125 9.625 14.3125 8 16 C6.33333333 14.33333333 4.66666667 12.66666667 3 11 C2.071875 10.113125 1.14375 9.22625 0.1875 8.3125 C-2 6 -2 6 -2 4 C-2.66 4 -3.32 4 -4 4 C-4 4.99 -4 5.98 -4 7 C-4.66 7 -5.32 7 -6 7 C-6 5.68 -6 4.36 -6 3 C-4.02 2.01 -2.04 1.02 0 0 Z " fill="#1369A8" transform="translate(38,13)"/>
<path d="M0 0 C0.99 0 1.98 0 3 0 C3 1.32 3 2.64 3 4 C5.76223278 6.76223278 8.20706617 6.57856291 12 7 C10.66667905 10.99996286 8.5042173 11.83782337 5 14 C5 13.34 5 12.68 5 12 C4.34 12 3.68 12 3 12 C3 10.68 3 9.36 3 8 C2.01 8.33 1.02 8.66 0 9 C-0.66 8.01 -1.32 7.02 -2 6 C-2.66 5.67 -3.32 5.34 -4 5 C-2.1875 2.5 -2.1875 2.5 0 0 Z " fill="#074FA2" transform="translate(72,74)"/>
<path d="M0 0 C3.5549955 1.4219982 4.36668882 2.63730051 6 6 C7.6459651 7.68711423 9.31237149 9.3545622 11 11 C11.99 12.485 11.99 12.485 13 14 C12.01 14.495 12.01 14.495 11 15 C10.21625 14.175 9.4325 13.35 8.625 12.5 C6.36278736 9.77011494 6.36278736 9.77011494 4 10 C4 9.01 4 8.02 4 7 C3.4225 7.33 2.845 7.66 2.25 8 C0 9 0 9 -4 9 C-3.6875 5.625 -3.6875 5.625 -3 2 C-2.01 1.34 -1.02 0.68 0 0 Z " fill="#16458F" transform="translate(46,60)"/>
<path d="M0 0 C-0.33 0.99 -0.66 1.98 -1 3 C-1.66 3 -2.32 3 -3 3 C-3.33 4.32 -3.66 5.64 -4 7 C-5.66666667 7 -7.33333333 7 -9 7 C-9 7.66 -9 8.32 -9 9 C-8.34 9.33 -7.68 9.66 -7 10 C-7.99 10.99 -8.98 11.98 -10 13 C-10.99 12.67 -11.98 12.34 -13 12 C-14.485 14.475 -14.485 14.475 -16 17 C-16.99 16.67 -17.98 16.34 -19 16 C-17.39775875 11.19327625 -13.58616585 8.44613909 -9.75 5.3125 C-6.98257806 3.2957678 -6.98257806 3.2957678 -6 1 C-3 0 -3 0 0 0 Z " fill="#1C5D9F" transform="translate(30,9)"/>
<path d="M0 0 C4.85963179 0.60745397 8.7405518 2.72758967 13 5 C13 5.66 13 6.32 13 7 C13.88300781 6.98839844 14.76601563 6.97679688 15.67578125 6.96484375 C23.18570191 6.90837818 30.53750129 7.147143 38 8 C36 10 36 10 32.83984375 10.265625 C22.09192514 10.22259029 12.51591889 9.47707133 3 4 C0.9375 1.75 0.9375 1.75 0 0 Z " fill="#222778" transform="translate(23,85)"/>
<path d="M0 0 C2.97 0.495 2.97 0.495 6 1 C4 3 4 3 1.375 4.125 C-4.16451631 7.20250906 -8.49461189 11.74191784 -12 17 C-12.66 17 -13.32 17 -14 17 C-14.33 17.66 -14.66 18.32 -15 19 C-15 15 -15 15 -13.7109375 13.50390625 C-13.14632812 13.00761719 -12.58171875 12.51132812 -12 12 C-10.8711087 10.64907558 -9.74630115 9.29473104 -8.625 7.9375 C-5.99991505 4.89998132 -4.02037701 2.97463685 0 2 C0 1.34 0 0.68 0 0 Z " fill="#B2CFDE" transform="translate(75,21)"/>
<path d="M0 0 C0.33 0.66 0.66 1.32 1 2 C1.66 2.33 2.32 2.66 3 3 C2.2575 3.721875 1.515 4.44375 0.75 5.1875 C-1.95038658 7.83486547 -1.95038658 7.83486547 -3.8125 10.375 C-6.7996285 13.9595542 -10.09260626 17.41646656 -14 20 C-14.99 19.67 -15.98 19.34 -17 19 C-17 18.34 -17 17.68 -17 17 C-16.401875 16.731875 -15.80375 16.46375 -15.1875 16.1875 C-12.95672092 15.1106021 -12.95672092 15.1106021 -11.375 13.375 C-10.92125 12.92125 -10.4675 12.4675 -10 12 C-9.34 12 -8.68 12 -8 12 C-8 11.01 -8 10.02 -8 9 C-6.50390625 7.5 -6.50390625 7.5 -4.5625 6 C-1.49568071 3.62300315 -1.49568071 3.62300315 0 0 Z " fill="#AAB6CE" transform="translate(44,57)"/>
<path d="M0 0 C1.65 0.33 3.3 0.66 5 1 C4.39301257 5.12751449 2.96189209 8.3321148 1 12 C-0.65 12 -2.3 12 -4 12 C-4 9.03 -4 6.06 -4 3 C-3.01 3 -2.02 3 -1 3 C-0.67 3.99 -0.34 4.98 0 6 C0.66 6.33 1.32 6.66 2 7 C2 5.35 2 3.7 2 2 C1.34 2 0.68 2 0 2 C0 1.34 0 0.68 0 0 Z " fill="#11418D" transform="translate(19,32)"/>
<path d="M0 0 C0.66 0.33 1.32 0.66 2 1 C2.09945415 7.11090483 2.0712828 12.97403427 1 19 C0.67 18.01 0.34 17.02 0 16 C-0.66 16 -1.32 16 -2 16 C-2.84098656 11.98195309 -3.05404945 8.98196457 -2 5 C-1.34 5 -0.68 5 0 5 C0 3.35 0 1.7 0 0 Z " fill="#1485CB" transform="translate(91,32)"/>
<path d="M0 0 C0 0.99 0 1.98 0 3 C-3.83907383 4.38206658 -7.03763016 3.61485049 -11 3 C-12.9996695 2.96364237 -15.00059462 2.95123402 -17 3 C-15.09317346 0.42017585 -13.94028767 -0.01377977 -10.75 -0.75 C-6.97585388 -1.00160974 -3.71100566 -0.68161328 0 0 Z " fill="#0D83C3" transform="translate(67,5)"/>
<path d="M0 0 C0.99 0 1.98 0 3 0 C3 0.66 3 1.32 3 2 C4.98 1.67 6.96 1.34 9 1 C8.34 2.65 7.68 4.3 7 6 C6.34 6 5.68 6 5 6 C4.67 7.32 4.34 8.64 4 10 C2.0625 9.6875 2.0625 9.6875 0 9 C-0.33 8.01 -0.66 7.02 -1 6 C1.475 6.495 1.475 6.495 4 7 C3.34 6.401875 2.68 5.80375 2 5.1875 C0 3 0 3 0 0 Z " fill="#1569A4" transform="translate(68,44)"/>
<path d="M0 0 C1.03348696 3.10046087 1.17755913 4.05610218 0 7 C-0.99 7.33 -1.98 7.66 -3 8 C-3 8.99 -3 9.98 -3 11 C-3.66 11 -4.32 11 -5 11 C-5.28875 11.928125 -5.5775 12.85625 -5.875 13.8125 C-7 17 -7 17 -9 20 C-9.66 20 -10.32 20 -11 20 C-10.67 18.68 -10.34 17.36 -10 16 C-9.34 16 -8.68 16 -8 16 C-7.7834375 14.824375 -7.7834375 14.824375 -7.5625 13.625 C-7 11 -7 11 -6 9 C-5.34 9 -4.68 9 -4 9 C-3.67 7.35 -3.34 5.7 -3 4 C-2.34 4 -1.68 4 -1 4 C-0.67 2.68 -0.34 1.36 0 0 Z " fill="#1265A8" transform="translate(84,54)"/>
<path d="M0 0 C0.33 0.66 0.66 1.32 1 2 C2.98 2 4.96 2 7 2 C7 2.66 7 3.32 7 4 C6.01 4 5.02 4 4 4 C4 4.99 4 5.98 4 7 C5.32 7.66 6.64 8.32 8 9 C8 9.66 8 10.32 8 11 C5.36 10.34 2.72 9.68 0 9 C0.66 8.67 1.32 8.34 2 8 C1.01 5.69 0.02 3.38 -1 1 C-0.67 0.67 -0.34 0.34 0 0 Z " fill="#086BB7" transform="translate(64,40)"/>
<path d="M0 0 C0.99 0.33 1.98 0.66 3 1 C3 1.66 3 2.32 3 3 C4.65 3.33 6.3 3.66 8 4 C7.6875 5.9375 7.6875 5.9375 7 8 C6.01 8.33 5.02 8.66 4 9 C4 9.66 4 10.32 4 11 C3.34 11 2.68 11 2 11 C2.33 9.68 2.66 8.36 3 7 C2.01 6.67 1.02 6.34 0 6 C0 4 0 2 0 0 Z " fill="#083D93" transform="translate(36,53)"/>
<path d="M0 0 C0.33 0 0.66 0 1 0 C0.28571429 8.57142857 0.28571429 8.57142857 -3 12 C-5.5654594 9.4345406 -5.54046087 7.52313332 -6 4 C-5.195625 3.525625 -4.39125 3.05125 -3.5625 2.5625 C-1.15246512 1.23099846 -1.15246512 1.23099846 0 0 Z " fill="#0F5AA3" transform="translate(31,16)"/>
<path d="M0 0 C0.66 0.33 1.32 0.66 2 1 C2 2.98 2 4.96 2 7 C0 8 0 8 -1.875 7.5 C-4.28885269 6.93203466 -5.66839233 7.25055468 -8 8 C-6.49776416 3.79373966 -3.71449966 2.26099979 0 0 Z " fill="#1F2480" transform="translate(34,73)"/>
<path d="M0 0 C-1 2 -1 2 -3.3984375 2.8515625 C-4.38070312 3.10679688 -5.36296875 3.36203125 -6.375 3.625 C-7.84066406 4.01558594 -7.84066406 4.01558594 -9.3359375 4.4140625 C-12 5 -12 5 -15 5 C-14.67 4.01 -14.34 3.02 -14 2 C-9.23982707 0.19113429 -5.06323209 -0.20666253 0 0 Z " fill="#2076B2" transform="translate(46,4)"/>
<path d="M0 0 C0.99 0.495 0.99 0.495 2 1 C2 1.66 2 2.32 2 3 C2.66 3 3.32 3 4 3 C4.1953125 9.0546875 4.1953125 9.0546875 4 11 C3.34 11.66 2.68 12.32 2 13 C1.34 12.67 0.68 12.34 0 12 C0 8.04 0 4.08 0 0 Z " fill="#127BB6" transform="translate(92,53)"/>
<path d="M0 0 C0 2.97 0 5.94 0 9 C-0.99 9.495 -0.99 9.495 -2 10 C-2 7.03 -2 4.06 -2 1 C-6.20180184 1.5739739 -6.20180184 1.5739739 -8 5 C-8.99 4.34 -9.98 3.68 -11 3 C-6.97920329 -0.18890774 -5.22578552 -1.30644638 0 0 Z " fill="#2388C2" transform="translate(83,24)"/>
<path d="M0 0 C1.32 0 2.64 0 4 0 C5.1875 2.25 5.1875 2.25 6 5 C4.625 7.3125 4.625 7.3125 3 9 C0.9375 6.75 0.9375 6.75 -1 4 C-0.75 1.6875 -0.75 1.6875 0 0 Z " fill="#0F68B3" transform="translate(43,20)"/>
<path d="M0 0 C0.66 0 1.32 0 2 0 C2.33 1.98 2.66 3.96 3 6 C2.01 6.33 1.02 6.66 0 7 C0.33 7.99 0.66 8.98 1 10 C0.01 10.495 0.01 10.495 -1 11 C-2.23076923 4.6 -2.23076923 4.6 -1.0625 1.5625 C-0.711875 1.046875 -0.36125 0.53125 0 0 Z " fill="#063E8E" transform="translate(31,45)"/>
<path d="M0 0 C0.99 0 1.98 0 3 0 C3 3.63 3 7.26 3 11 C2.01 11 1.02 11 0 11 C0 7.37 0 3.74 0 0 Z " fill="#076BC0" transform="translate(89,56)"/>
<path d="M0 0 C1.1577506 3.47325181 1.06866652 6.36067448 1 10 C-0.8125 11.0625 -0.8125 11.0625 -3 12 C-3.99 11.67 -4.98 11.34 -6 11 C-5.67 10.01 -5.34 9.02 -5 8 C-4.34 8 -3.68 8 -3 8 C-2.690625 7.05125 -2.38125 6.1025 -2.0625 5.125 C-1 2 -1 2 0 0 Z " fill="#27488C" transform="translate(29,46)"/>
<path d="M0 0 C3 1.8125 3 1.8125 6 4 C6 4.99 6 5.98 6 7 C6.99 7 7.98 7 9 7 C9 7.99 9 8.98 9 10 C6 10 6 10 4.39453125 8.57421875 C3.61142578 7.64029297 3.61142578 7.64029297 2.8125 6.6875 C2.01779297 5.76517578 2.01779297 5.76517578 1.20703125 4.82421875 C0 3 0 3 0 0 Z " fill="#1E68A1" transform="translate(50,30)"/>
<path d="M0 0 C1.32 0 2.64 0 4 0 C4.25 7.625 4.25 7.625 2 11 C2.33 8.69 2.66 6.38 3 4 C1.68 3.67 0.36 3.34 -1 3 C-0.67 2.01 -0.34 1.02 0 0 Z " fill="#057FCF" transform="translate(77,25)"/>
<path d="M0 0 C0.99 0 1.98 0 3 0 C2.34 2.31 1.68 4.62 1 7 C-0.65 6.67 -2.3 6.34 -4 6 C-2.1875 3 -2.1875 3 0 0 Z " fill="#19559A" transform="translate(72,74)"/>
<path d="M0 0 C0.66 0 1.32 0 2 0 C1.67 2.64 1.34 5.28 1 8 C-0.32 7.67 -1.64 7.34 -3 7 C-2.38722388 4.03824877 -1.74627478 2.61941217 0 0 Z " fill="#636297" transform="translate(11,62)"/>
<path d="M0 0 C0.33 0.66 0.66 1.32 1 2 C1.66 2 2.32 2 3 2 C3 2.66 3 3.32 3 4 C1.02 4.99 -0.96 5.98 -3 7 C-3.33 5.35 -3.66 3.7 -4 2 C-3.01 2 -2.02 2 -1 2 C-0.67 1.34 -0.34 0.68 0 0 Z " fill="#1883C2" transform="translate(72,19)"/>
<path d="M0 0 C1.32 0.66 2.64 1.32 4 2 C3.34 3.32 2.68 4.64 2 6 C1.34 6 0.68 6 0 6 C-0.33 5.34 -0.66 4.68 -1 4 C-1.99 4.495 -1.99 4.495 -3 5 C-1.125 1.125 -1.125 1.125 0 0 Z " fill="#0156A1" transform="translate(22,19)"/>
<path d="M0 0 C0.33 0.99 0.66 1.98 1 3 C-6.75 2.25 -6.75 2.25 -9 0 C-3.375 -1.125 -3.375 -1.125 0 0 Z " fill="#595A95" transform="translate(25,85)"/>
<path d="M0 0 C0.75 1.5625 0.75 1.5625 1 4 C-0.13084437 6.50286409 -1.52139516 8.67007722 -3 11 C-3.66 11 -4.32 11 -5 11 C-4.67 9.68 -4.34 8.36 -4 7 C-3.34 7 -2.68 7 -2 7 C-1.855625 6.21625 -1.71125 5.4325 -1.5625 4.625 C-1 2 -1 2 0 0 Z " fill="#4276A9" transform="translate(78,63)"/>
<path d="M0 0 C1.953125 0.35807292 3.90625 0.71614583 5.859375 1.07421875 C5.529375 1.73421875 5.199375 2.39421875 4.859375 3.07421875 C1.229375 3.07421875 -2.400625 3.07421875 -6.140625 3.07421875 C-2.140625 0.07421875 -2.140625 0.07421875 0 0 Z " fill="#0A3888" transform="translate(66.140625,87.92578125)"/>
<path d="M0 0 C2.475 0.495 2.475 0.495 5 1 C5.66 2.98 6.32 4.96 7 7 C3.17053157 5.54744301 1.87949705 3.57104439 0 0 Z " fill="#1361A3" transform="translate(59,41)"/>
<path d="M0 0 C0.99 0 1.98 0 3 0 C3.33 1.32 3.66 2.64 4 4 C2.02 4.33 0.04 4.66 -2 5 C-1.125 1.125 -1.125 1.125 0 0 Z " fill="#0676CE" transform="translate(65,21)"/>
<path d="M0 0 C-0.8125 2.4375 -0.8125 2.4375 -2 5 C-2.99 5.33 -3.98 5.66 -5 6 C-5.33 6.66 -5.66 7.32 -6 8 C-6 4 -6 4 -4.125 1.75 C-2 0 -2 0 0 0 Z " fill="#C4D6E0" transform="translate(66,32)"/>
<path d="M0 0 C0.66 0.33 1.32 0.66 2 1 C2 1.66 2 2.32 2 3 C2.66 3 3.32 3 4 3 C3.67 4.65 3.34 6.3 3 8 C2.34 8 1.68 8 1 8 C1 7.34 1 6.68 1 6 C0.34 6 -0.32 6 -1 6 C-0.67 4.02 -0.34 2.04 0 0 Z " fill="#2B519D" transform="translate(8,29)"/>
<path d="M0 0 C0.99 0 1.98 0 3 0 C2.67 1.65 2.34 3.3 2 5 C1.01 5 0.02 5 -1 5 C-0.67 3.35 -0.34 1.7 0 0 Z " fill="#0B3E89" transform="translate(52,74)"/>
<path d="M0 0 C0.66 0 1.32 0 2 0 C2 0.66 2 1.32 2 2 C3.32 2.33 4.64 2.66 6 3 C4.68 3.99 3.36 4.98 2 6 C2 5.34 2 4.68 2 4 C1.34 4 0.68 4 0 4 C0 2.68 0 1.36 0 0 Z " fill="#15549B" transform="translate(75,82)"/>
<path d="M0 0 C0.99 0.33 1.98 0.66 3 1 C3 1.66 3 2.32 3 3 C3.66 3 4.32 3 5 3 C4.67 4.32 4.34 5.64 4 7 C2 5.1875 2 5.1875 0 3 C0 2.01 0 1.02 0 0 Z " fill="#4D4988" transform="translate(10,78)"/>
<path d="M0 0 C0.99 0 1.98 0 3 0 C2.67 1.65 2.34 3.3 2 5 C1.01 5.33 0.02 5.66 -1 6 C-1.042721 4.33388095 -1.04063832 2.66617115 -1 1 C-0.67 0.67 -0.34 0.34 0 0 Z " fill="#125BA0" transform="translate(85,75)"/>
<path d="M0 0 C1.875 0.3125 1.875 0.3125 4 1 C4.66 1.99 5.32 2.98 6 4 C5.67 4.99 5.34 5.98 5 7 C3.29115995 5.37660195 1.62553283 3.70680947 0 2 C0 1.34 0 0.68 0 0 Z " fill="#2A71A9" transform="translate(36,17)"/>
<path d="M0 0 C0.33 0 0.66 0 1 0 C1 1.65 1 3.3 1 5 C-0.65 5.33 -2.3 5.66 -4 6 C-2.84826645 3.53199953 -1.95216435 1.95216435 0 0 Z " fill="#035AAB" transform="translate(31,16)"/>
<path d="M0 0 C0.99 0 1.98 0 3 0 C3.66 1.65 4.32 3.3 5 5 C3.35 5 1.7 5 0 5 C0 3.35 0 1.7 0 0 Z " fill="#0987D5" transform="translate(72,9)"/>
<path d="M0 0 C-4.625 3 -4.625 3 -8 3 C-8 2.01 -8 1.02 -8 0 C-2.25 -1.125 -2.25 -1.125 0 0 Z " fill="#23227D" transform="translate(23,82)"/>
<path d="M0 0 C0 0.66 0 1.32 0 2 C-2.375 3.6875 -2.375 3.6875 -5 5 C-5.66 4.67 -6.32 4.34 -7 4 C-7 3.34 -7 2.68 -7 2 C-4.35261084 0.5393715 -3.10551666 0 0 0 Z " fill="#BDBFD3" transform="translate(34,72)"/>
<path d="M0 0 C1.65 0.99 3.3 1.98 5 3 C4.67 3.99 4.34 4.98 4 6 C2.68 5.34 1.36 4.68 0 4 C0 2.68 0 1.36 0 0 Z " fill="#083A9F" transform="translate(51,69)"/>
<path d="M0 0 C0.99 0.99 1.98 1.98 3 3 C2.34 4.98 1.68 6.96 1 9 C0.01 9 -0.98 9 -2 9 C-2 8.34 -2 7.68 -2 7 C-1.34 6.67 -0.68 6.34 0 6 C0 4.02 0 2.04 0 0 Z " fill="#1A4D8D" transform="translate(33,45)"/>
<path d="M0 0 C-0.33 0.99 -0.66 1.98 -1 3 C-2.98 3.33 -4.96 3.66 -7 4 C-6.67 3.01 -6.34 2.02 -6 1 C-3 0 -3 0 0 0 Z " fill="#27689E" transform="translate(30,9)"/>
</svg>
